<svg width="32" height="32" viewBox="0 0 32 32" fill="none" xmlns="http://www.w3.org/2000/svg">
<path d="M30.2929 31.7071C30.6834 32.0976 31.3166 32.0976 31.7071 31.7071C32.0976 31.3166 32.0976 30.6834 31.7071 30.2929L30.2929 31.7071ZM31.7071 30.2929L22.914 21.4998L21.4998 22.914L30.2929 31.7071L31.7071 30.2929ZM24.8276 13.4138C24.8276 19.7175 19.7175 24.8276 13.4138 24.8276V26.8276C20.822 26.8276 26.8276 20.822 26.8276 13.4138H24.8276ZM13.4138 24.8276C7.11013 24.8276 2 19.7175 2 13.4138H0C0 20.822 6.00556 26.8276 13.4138 26.8276V24.8276ZM2 13.4138C2 7.11013 7.11013 2 13.4138 2V0C6.00556 0 0 6.00556 0 13.4138H2ZM13.4138 2C19.7175 2 24.8276 7.11013 24.8276 13.4138H26.8276C26.8276 6.00556 20.822 0 13.4138 0V2Z" fill="white"/>
</svg>
