<svg width="30" height="30" viewBox="0 0 30 30" fill="none" xmlns="http://www.w3.org/2000/svg">
<path d="M8.32481 28.1908L6.5026 30L0 23.7092L4.65881 19.1173C5.6023 18.1805 6.79285 17.527 8.09365 17.2319C9.39445 16.9368 10.7527 17.012 12.0124 17.449L13.036 17.8041H19.3166C19.5823 17.804 19.8452 17.8568 20.0899 17.9595C20.3345 18.0623 20.5558 18.2128 20.7408 18.4021C20.9257 18.5914 21.0704 18.8157 21.1663 19.0616C21.2623 19.3075 21.3074 19.5701 21.2992 19.8337C21.269 20.3547 21.0373 20.844 20.6523 21.1994C20.2674 21.5548 19.759 21.7488 19.2334 21.7408H15.4657C15.2612 21.7408 15.0652 21.8214 14.9206 21.965C14.776 22.1085 14.6948 22.3031 14.6948 22.5061C14.6948 22.7091 14.776 22.9038 14.9206 23.0473C15.0652 23.1908 15.2612 23.2714 15.4657 23.2714H19.2457C20.1678 23.2759 21.0563 22.9282 21.7272 22.3002C22.3982 21.6722 22.8002 20.8121 22.8501 19.898C22.8501 19.8827 22.8501 19.8673 22.8501 19.849L26.3465 15.9398C26.7016 15.5306 27.2019 15.273 27.7434 15.2206C28.2849 15.1681 28.8259 15.3248 29.254 15.6582C29.4659 15.8323 29.6404 16.0469 29.7674 16.2891C29.8944 16.5314 29.9712 16.7964 29.9933 17.0686C30.0155 17.3408 29.9824 17.6147 29.8962 17.874C29.81 18.1334 29.6724 18.3729 29.4914 18.5786L22.5109 26.5378C22.0502 27.0621 21.4814 27.4821 20.8431 27.7694C20.2048 28.0567 19.5118 28.2046 18.811 28.2031L8.32481 28.1908ZM22.7391 10.8857C22.7391 10.5001 22.5848 10.1302 22.3101 9.85752C22.0355 9.58483 21.6629 9.43163 21.2745 9.43163H19.1162V7.28878C19.099 6.91507 18.9373 6.56236 18.6648 6.30397C18.3923 6.04558 18.03 5.90139 17.6532 5.90139C17.2764 5.90139 16.9141 6.04558 16.6417 6.30397C16.3692 6.56236 16.2075 6.91507 16.1902 7.28878V9.43163H14.0319C13.8342 9.42262 13.6366 9.45351 13.4512 9.52244C13.2658 9.59137 13.0964 9.69691 12.9532 9.83268C12.81 9.96844 12.6961 10.1316 12.6182 10.3124C12.5403 10.4931 12.5002 10.6876 12.5002 10.8842C12.5002 11.0808 12.5403 11.2753 12.6182 11.456C12.6961 11.6367 12.81 11.7999 12.9532 11.9357C13.0964 12.0715 13.2658 12.177 13.4512 12.2459C13.6366 12.3149 13.8342 12.3458 14.0319 12.3367H16.1902V14.4796C16.2075 14.8533 16.3692 15.206 16.6417 15.4644C16.9141 15.7228 17.2764 15.867 17.6532 15.867C18.03 15.867 18.3923 15.7228 18.6648 15.4644C18.9373 15.206 19.099 14.8533 19.1162 14.4796V12.3367H21.2745C21.6624 12.3367 22.0345 12.184 22.309 11.9119C22.5836 11.6399 22.7383 11.2708 22.7391 10.8857V10.8857ZM8.69789 2.82857V4.40816H7.11001C6.8238 4.40816 6.54932 4.52105 6.34694 4.72198C6.14456 4.92291 6.03086 5.19543 6.03086 5.47959C6.03086 5.76375 6.14456 6.03627 6.34694 6.23721C6.54932 6.43814 6.8238 6.55102 7.11001 6.55102H8.70097V8.13061C8.70097 8.41477 8.81467 8.68729 9.01704 8.88823C9.21942 9.08916 9.49391 9.20204 9.78011 9.20204C10.0663 9.20204 10.3408 9.08916 10.5432 8.88823C10.7456 8.68729 10.8593 8.41477 10.8593 8.13061V6.5449H12.441C12.7272 6.5449 13.0017 6.43202 13.204 6.23108C13.4064 6.03015 13.5201 5.75763 13.5201 5.47347C13.5201 5.18931 13.4064 4.91679 13.204 4.71586C13.0017 4.51492 12.7272 4.40204 12.441 4.40204H10.85V2.82857C10.85 2.54441 10.7363 2.27189 10.5339 2.07096C10.3316 1.87003 10.0571 1.75714 9.77086 1.75714C9.48466 1.75714 9.21017 1.87003 9.00779 2.07096C8.80542 2.27189 8.69172 2.54441 8.69172 2.82857H8.69789ZM22.3105 0C22.0652 0 21.8299 0.0967563 21.6564 0.268984C21.483 0.441211 21.3855 0.674801 21.3855 0.918367V2.27755H20.0165C19.7712 2.27755 19.536 2.37431 19.3625 2.54653C19.189 2.71876 19.0916 2.95235 19.0916 3.19592C19.0916 3.43948 19.189 3.67307 19.3625 3.8453C19.536 4.01753 19.7712 4.11429 20.0165 4.11429H21.3855V5.47347C21.3855 5.71704 21.483 5.95063 21.6564 6.12285C21.8299 6.29508 22.0652 6.39184 22.3105 6.39184C22.5558 6.39184 22.7911 6.29508 22.9646 6.12285C23.138 5.95063 23.2355 5.71704 23.2355 5.47347V4.11429H24.6044C24.7259 4.11429 24.8462 4.09053 24.9584 4.04438C25.0706 3.99823 25.1726 3.93058 25.2585 3.8453C25.3444 3.76002 25.4125 3.65878 25.459 3.54736C25.5055 3.43594 25.5294 3.31652 25.5294 3.19592C25.5294 3.07532 25.5055 2.9559 25.459 2.84447C25.4125 2.73305 25.3444 2.63181 25.2585 2.54653C25.1726 2.46126 25.0706 2.39361 24.9584 2.34746C24.8462 2.30131 24.7259 2.27755 24.6044 2.27755H23.2355V0.918367C23.2355 0.674801 23.138 0.441211 22.9646 0.268984C22.7911 0.0967563 22.5558 0 22.3105 0V0Z" fill="white"/>
</svg>
