<svg width="25" height="30" viewBox="0 0 25 30" fill="none" xmlns="http://www.w3.org/2000/svg">
<path d="M19.6174 30V5.99273H0V30H4.56941V28.5757C4.56941 26.7849 5.96269 25.3252 7.64988 25.3252H11.9672C13.6565 25.3252 15.0594 26.7849 15.0594 28.5757V30H19.6174ZM5.41666 21.4174C5.41666 21.5448 5.39394 21.6772 5.34814 21.7949C5.30233 21.9125 5.2382 22.0212 5.15354 22.1116C5.06889 22.2016 4.96665 22.2698 4.85561 22.3185C4.74494 22.3672 4.62071 22.3913 4.50051 22.3913H2.33619C2.21636 22.3913 2.09213 22.3672 1.98109 22.3185C1.87042 22.2698 1.76818 22.2016 1.68352 22.1116C1.5985 22.0216 1.53474 21.9129 1.48893 21.7949C1.44312 21.6772 1.42004 21.5452 1.42004 21.4174V19.1407C1.42004 19.0133 1.44276 18.8813 1.48893 18.7632C1.53474 18.6456 1.59887 18.5369 1.68352 18.4465C1.76818 18.3565 1.87042 18.2883 1.98109 18.2397C2.09213 18.191 2.21636 18.1664 2.33619 18.1664H4.50051C4.62034 18.1664 4.74457 18.1906 4.85561 18.2397C4.96628 18.2883 5.06853 18.3565 5.15354 18.4465C5.2382 18.5369 5.30233 18.6452 5.34814 18.7632C5.39394 18.8809 5.41666 19.0129 5.41666 19.1407V21.4174ZM5.41666 14.6848C5.41666 14.8122 5.39394 14.9443 5.34814 15.0623C5.30233 15.18 5.2382 15.2887 5.15354 15.3787C5.06889 15.469 4.96665 15.5368 4.85561 15.5855C4.74494 15.6342 4.62071 15.6588 4.50051 15.6588H2.33619C2.21636 15.6588 2.09213 15.6346 1.98109 15.5855C1.87042 15.5368 1.76818 15.4686 1.68352 15.3787C1.5985 15.2887 1.53474 15.18 1.48893 15.0623C1.44312 14.9447 1.42004 14.8122 1.42004 14.6848V12.3961C1.42004 12.2687 1.44276 12.1487 1.48893 12.0307C1.53474 11.913 1.59887 11.8043 1.68352 11.714C1.76818 11.624 1.87042 11.5437 1.98109 11.4946C2.09213 11.4459 2.21636 11.4214 2.33619 11.4214H4.50051C4.62034 11.4214 4.74457 11.4455 4.85561 11.4946C4.96628 11.5433 5.06853 11.6236 5.15354 11.714C5.2382 11.804 5.30233 11.9126 5.34814 12.0307C5.39394 12.1483 5.41666 12.2683 5.41666 12.3961V14.6848ZM7.81039 12.2866C7.81039 12.1592 7.83311 12.0272 7.87928 11.9091C7.92509 11.7915 7.98922 11.6828 8.07388 11.5924C8.15889 11.5024 8.26077 11.4343 8.37181 11.3856C8.48248 11.3369 8.60708 11.3127 8.72691 11.3127H10.6622C10.782 11.3127 10.9063 11.3369 11.0173 11.3856C11.128 11.4343 11.2302 11.5024 11.3152 11.5924C11.3999 11.6824 11.464 11.7911 11.5098 11.9091C11.5556 12.0268 11.5787 12.1589 11.5787 12.2866V14.3319C11.5787 14.4593 11.556 14.5793 11.5098 14.6969C11.464 14.8146 11.3999 14.9232 11.3152 15.0136C11.2306 15.1036 11.1283 15.1839 11.0173 15.2326C10.9066 15.2813 10.782 15.3058 10.6622 15.3058H8.72691C8.60708 15.3058 8.48248 15.2816 8.37181 15.2326C8.26114 15.1839 8.15889 15.1036 8.07388 15.0136C7.98922 14.9236 7.92509 14.8149 7.87928 14.6969C7.83348 14.5793 7.81039 14.4593 7.81039 14.3319V12.2866ZM11.6351 21.1252C11.6351 21.2526 11.6124 21.3726 11.5663 21.4906C11.5204 21.6083 11.4563 21.717 11.3717 21.8069C11.287 21.8973 11.1848 21.9772 11.0741 22.0263C10.9631 22.075 10.8388 22.0991 10.719 22.0991H8.72618C8.60634 22.0991 8.48175 22.075 8.37108 22.0263C8.2604 21.9776 8.15816 21.8973 8.07314 21.8069C7.98849 21.717 7.92436 21.6083 7.87855 21.4906C7.83274 21.373 7.80966 21.253 7.80966 21.1252V19.0192C7.80966 18.8918 7.83238 18.7597 7.87855 18.6417C7.92436 18.524 7.98849 18.4153 8.07314 18.3254C8.15816 18.2354 8.26004 18.1672 8.37108 18.1185C8.48175 18.0698 8.60634 18.0453 8.72618 18.0453H10.719C10.8388 18.0453 10.9631 18.0694 11.0741 18.1185C11.1848 18.1672 11.287 18.2354 11.3717 18.3254C11.4567 18.4153 11.5204 18.524 11.5663 18.6417C11.6121 18.7597 11.6351 18.8918 11.6351 19.0192V21.1252ZM14.2004 12.3961C14.2004 12.2687 14.2231 12.1487 14.2693 12.0307C14.3151 11.913 14.3792 11.8043 14.4639 11.714C14.5485 11.624 14.6508 11.5437 14.7614 11.4946C14.8725 11.4459 14.9967 11.4214 15.1165 11.4214H17.2808C17.4007 11.4214 17.5249 11.4455 17.6359 11.4946C17.7466 11.5433 17.8489 11.6236 17.9339 11.714C18.0185 11.804 18.0827 11.9126 18.1285 12.0307C18.1743 12.1483 18.197 12.2683 18.197 12.3961V14.6848C18.197 14.8122 18.1743 14.9443 18.1285 15.0623C18.0827 15.18 18.0185 15.2887 17.9339 15.3787C17.8492 15.469 17.747 15.5368 17.6359 15.5855C17.5253 15.6342 17.4007 15.6588 17.2808 15.6588H15.1165C14.9967 15.6588 14.8725 15.6346 14.7614 15.5855C14.6508 15.5368 14.5485 15.4686 14.4639 15.3787C14.3788 15.2887 14.3151 15.18 14.2693 15.0623C14.2235 14.9447 14.2004 14.8122 14.2004 14.6848V12.3961ZM14.7618 22.3181C14.6511 22.2694 14.5489 22.2012 14.4642 22.1112C14.3792 22.0212 14.3154 21.9125 14.2696 21.7945C14.2238 21.6768 14.2007 21.5448 14.2007 21.417V19.1407C14.2007 19.0133 14.2235 18.8813 14.2696 18.7632C14.3154 18.6456 14.3796 18.5369 14.4642 18.4465C14.5489 18.3565 14.6511 18.2883 14.7618 18.2397C14.8728 18.191 14.9971 18.1664 15.1169 18.1664H17.2812C17.401 18.1664 17.5253 18.1906 17.6363 18.2397C17.747 18.2883 17.8492 18.3565 17.9342 18.4465C18.0189 18.5369 18.083 18.6452 18.1288 18.7632C18.1746 18.8809 18.1974 19.0129 18.1974 19.1407V21.4174C18.1974 21.5448 18.1746 21.6772 18.1288 21.7949C18.083 21.9125 18.0189 22.0212 17.9342 22.1116C17.8496 22.2016 17.7474 22.2698 17.6363 22.3185C17.5256 22.3672 17.401 22.3913 17.2812 22.3913H15.1165C14.9967 22.3913 14.8725 22.3668 14.7618 22.3181Z" fill="white"/>
<path d="M23.7533 0H4.8589L1.2258 4.04374H20.1074L23.7533 0Z" fill="white"/>
<path d="M21.449 28.5415L25 24.5889V1.43245L21.449 5.37101V28.5415Z" fill="white"/>
<path d="M7.64803 27.2687C6.95322 27.2687 6.3984 27.8597 6.3984 28.5777V29.9969H13.2219V28.5777C13.2219 27.8597 12.6686 27.2687 11.9686 27.2687H7.64803Z" fill="white"/>
</svg>
